<?xml version="1.0" standalone="no"?><!DOCTYPE svg PUBLIC "-//W3C//DTD SVG 1.1//EN" "http://www.w3.org/Graphics/SVG/1.1/DTD/svg11.dtd"><svg t="1513161347181" class="icon" style="" viewBox="0 0 1024 1024" version="1.1" xmlns="http://www.w3.org/2000/svg" p-id="2782" xmlns:xlink="http://www.w3.org/1999/xlink" width="200" height="200"><defs><style type="text/css"></style></defs><path d="M123.650427 1023.9936h63.103606a34.367785 34.367785 0 0 0 35.007781-33.59979v-349.245817h-133.119168v349.245817c0 18.559884 15.679902 33.59979 35.007781 33.59979zM541.695814 3.13598h-63.167605a34.367785 34.367785 0 0 0-34.943781 33.59979v519.292755h133.119168V36.73577a34.431785 34.431785 0 0 0-35.007782-33.59979z m-354.941781 0h-63.103606a34.367785 34.367785 0 0 0-35.007781 33.59979v306.622084h133.119168V36.73577a34.431785 34.431785 0 0 0-35.007781-33.59979z m709.819563 0h-63.103605a34.367785 34.367785 0 0 0-35.007781 33.59979v179.19888h133.119168v-179.19888a34.431785 34.431785 0 0 0-35.007782-33.59979z m79.231505 255.166406H753.918488a43.519728 43.519728 0 0 0-44.287723 42.623733v127.615203c0 23.487853 19.839876 42.559734 44.287723 42.559734h221.822614a43.519728 43.519728 0 0 0 44.287723-42.559734V300.926119c0.127999-23.551853-19.839876-42.623734-44.287723-42.623733zM833.277992 1023.9936h63.103606a34.367785 34.367785 0 0 0 35.007781-33.59979v-476.79702h-133.119168v476.79702c0.127999 18.559884 15.679902 33.59979 35.007781 33.59979zM620.991319 598.588259H399.104706a43.519728 43.519728 0 0 0-44.351723 42.559734v127.615202c0 23.551853 19.839876 42.559734 44.351723 42.559734H620.79932a43.519728 43.519728 0 0 0 44.351723-42.559734v-127.615202c0.127999-23.487853-19.711877-42.559734-44.159724-42.559734zM478.40021 1023.9936h63.167605a34.367785 34.367785 0 0 0 35.007781-33.59979V853.754664H443.520428v136.575146c0 18.559884 15.551903 33.59979 34.815782 33.59979zM266.113537 385.917588H44.354923A43.519728 43.519728 0 0 0 0.0032 428.541322V556.156524c0 23.487853 19.839876 42.559734 44.351723 42.559734h221.758614a43.519728 43.519728 0 0 0 44.351723-42.559734V428.541322a43.519728 43.519728 0 0 0-44.351723-42.623734z" p-id="2783"></path></svg>