<?xml version="1.0" standalone="no"?><!DOCTYPE svg PUBLIC "-//W3C//DTD SVG 1.1//EN" "http://www.w3.org/Graphics/SVG/1.1/DTD/svg11.dtd"><svg t="1513309072123" class="icon" style="" viewBox="0 0 1024 1024" version="1.1" xmlns="http://www.w3.org/2000/svg" p-id="6126" xmlns:xlink="http://www.w3.org/1999/xlink" width="32" height="32"><defs><style type="text/css"></style></defs><path d="M529.687273 646.749091v-109.614546a112.64 112.64 0 0 1 46.545454 11.17091l12.8 6.74909v-41.890909l-5.352727-1.163636a176.872727 176.872727 0 0 0-53.992727-9.309091V465.454545h-35.141818v38.4A97.28 97.28 0 0 0 442.181818 530.152727a75.869091 75.869091 0 0 0-23.272727 54.458182 66.327273 66.327273 0 0 0 16.989091 46.545455 212.247273 212.247273 0 0 0 57.949091 39.098181v107.054546a139.636364 139.636364 0 0 1-61.905455-18.618182l-13.032727-7.68v41.425455l4.654545 2.327272a167.098182 167.098182 0 0 0 69.818182 16.989091v42.821818h35.374546v-44.450909A97.28 97.28 0 0 0 581.818182 784.989091a73.541818 73.541818 0 0 0 23.272727-54.225455 66.327273 66.327273 0 0 0-18.618182-46.545454 205.265455 205.265455 0 0 0-56.785454-37.469091z m-69.818182-64.465455a40.029091 40.029091 0 0 1 11.636364-29.556363 51.898182 51.898182 0 0 1 23.272727-13.498182V628.363636a96.814545 96.814545 0 0 1-26.763637-20.247272 39.796364 39.796364 0 0 1-9.076363-26.298182z m106.123636 152.203637a37.701818 37.701818 0 0 1-10.938182 27.694545 51.665455 51.665455 0 0 1-24.436363 13.265455v-87.04a103.098182 103.098182 0 0 1 26.298182 19.781818 38.632727 38.632727 0 0 1 8.378181 26.298182z m190.138182-482.676364a168.261818 168.261818 0 0 0 9.076364-16.290909 195.490909 195.490909 0 0 0 23.272727-72.378182 124.509091 124.509091 0 0 0-122.647273-126.138182 119.854545 119.854545 0 0 0-54.923636 13.498182 120.087273 120.087273 0 0 0-195.258182 0 119.854545 119.854545 0 0 0-54.923636-13.498182A124.974545 124.974545 0 0 0 236.916364 162.909091a178.269091 178.269091 0 0 0 33.28 87.272727C158.952727 352.581818 93.090909 517.352727 93.090909 696.32 93.090909 1024 325.818182 1024 512 1024s418.909091 0 418.909091-327.68c0-177.803636-65.163636-342.109091-175.476364-444.509091z m-395.636364-168.494545a73.076364 73.076364 0 0 1 46.545455 17.454545l23.272727 19.781818L442.181818 93.090909a74.472727 74.472727 0 0 1 139.636364 0l12.567273 28.16 23.272727-19.781818a73.076364 73.076364 0 0 1 46.545454-17.454546A77.963636 77.963636 0 0 1 740.538182 162.909091a158.487273 158.487273 0 0 1-17.687273 51.665454 126.370909 126.370909 0 0 1-11.403636 18.618182 825.250909 825.250909 0 0 1-201.309091 29.323637A758.923636 758.923636 0 0 1 315.345455 232.727273a162.909091 162.909091 0 0 1-31.883637-69.818182 78.429091 78.429091 0 0 1 76.101818-79.592727zM512 977.454545c-225.047273 0-372.363636-19.549091-372.363636-281.134545C139.636364 527.36 202.24 372.363636 307.2 279.272727a795.694545 795.694545 0 0 0 202.705455 29.323637 855.738182 855.738182 0 0 0 207.127272-29.323637C821.992727 372.363636 884.363636 527.592727 884.363636 696.32 884.363636 957.905455 737.047273 977.454545 512 977.454545z" p-id="6127"></path></svg>