<?xml version="1.0" standalone="no"?><!DOCTYPE svg PUBLIC "-//W3C//DTD SVG 1.1//EN" "http://www.w3.org/Graphics/SVG/1.1/DTD/svg11.dtd"><svg t="1513309260451" class="icon" style="" viewBox="0 0 1024 1024" version="1.1" xmlns="http://www.w3.org/2000/svg" p-id="7724" xmlns:xlink="http://www.w3.org/1999/xlink" width="32" height="32"><defs><style type="text/css"></style></defs><path d="M41.279 884.83H982.72v53.212H41.28V884.83z m-4.094-243.723l118.021-73.848 218.988 107.447L614.67 322.688 860.264 505.86l118.363-5.116v32.745l-132.689 6.14L623.881 375.9 385.45 721.778 158.275 609.214l-121.09 73.678z m829.603-185.663l54.875-2.372V269.66c0-16.021-12.987-29.008-29.007-29.008h-85.25c-16.02 0-29.007 12.987-29.007 29.008v119.86l88.389 65.923z m-33.375 137.013L778.4 551.895v283.817h143.263V588.373z m-229.11-332.783l86.093 64.21V93.653c0-16.02-12.987-29.008-29.007-29.008h-85.25c-16.02 0-29.007 12.987-29.007 29.008v249.71l57.17-83.688z m23.797 181.4L547.133 558.53v277.183h143.263V487.007zM392.568 782.746l-74.656-36.991v89.958h143.263v-152.49z m-31.794-166.587l100.4-146.969v-19.426c0-16.021-12.986-29.008-29.006-29.008h-85.25c-16.02 0-29.007 12.987-29.007 29.008v145.364l42.863 21.031zM150.328 512.903l80.603 39.547V346.408c0-16.021-12.987-29.008-29.007-29.008h-85.248c-16.021 0-29.008 12.987-29.008 29.008V552.11l62.66-39.208z m6.395 152.982l-69.055 42.017v122.845c0 1.693 0.154 3.35 0.432 4.966h142.398c0.279-1.615 0.432-3.272 0.432-4.966V702.655l-74.207-36.77z" fill="" p-id="7725"></path></svg>