<?xml version="1.0" standalone="no"?><!DOCTYPE svg PUBLIC "-//W3C//DTD SVG 1.1//EN" "http://www.w3.org/Graphics/SVG/1.1/DTD/svg11.dtd"><svg t="1513309190848" class="icon" style="" viewBox="0 0 1024 1024" version="1.1" xmlns="http://www.w3.org/2000/svg" p-id="7043" xmlns:xlink="http://www.w3.org/1999/xlink" width="32" height="32"><defs><style type="text/css"></style></defs><path d="M316.5133 801.367c-30.0954 4.5435-57.2908 8.5074-84.437 12.7887-23.7384 3.7437-40.448-11.1268-38.1256-35.1242 2.3081-23.8449 5.3432-47.6262 8.4419-71.3861 2.1627-16.5847 2.0275-17.492-14.0698-22.3304-24.1828-7.2684-48.4065-14.4097-72.6968-21.3084-22.3642-6.3519-30.8552-26.839-18.5201-46.4579 14.4722-23.0185 29.1942-45.8875 44.2511-68.5261 4.2598-6.4051 3.6045-10.0127-2.2784-15.0753-21.076-18.1422-41.7546-36.7575-62.2582-55.5489-15.5843-14.2828-13.7267-35.838 4.1093-47.2003 23.7404-15.1245 47.7174-29.8844 71.8049-44.4488 6.4911-3.925 7.639-7.8797 4.608-14.8603-10.0608-23.17-19.4345-46.6371-29.2178-69.9279-10.2195-24.3292-0.4669-42.9117 25.8478-46.7272 25.5939-3.71 51.3669-6.2689 77.1123-8.8084 8.8515-0.8735 14.8388-2.0797 15.2259-13.4615 0.7916-23.2888 3.1857-46.5224 4.9265-69.7795 0.6205-8.2872 0.7629-16.7342 5.3279-24.0906 7.1158-11.4637 20.6868-16.8888 35.3577-12.3689 26.8708 8.278 53.5398 17.2626 80.0307 26.6916 8.361 2.9757 12.5276 1.2257 16.7588-6.3611 12.7734-22.9048 26.3997-45.3315 39.4537-68.0817 11.4022-19.8728 34.5047-23.4076 51.0116-7.5059 20.482 19.7325 41.0573 39.3718 61.2946 59.3521 4.7903 4.7288 8.2186 2.7341 12.4785-0.128 22.3037-14.9832 44.5952-29.9889 67.0577-44.7314 23.7855-15.6109 43.8088-8.4326 53.1794 18.4074 8.4316 24.149 17.4572 48.0901 25.9052 72.234 1.9405 5.545 4.7012 7.466 10.5912 6.5628 28.1129-4.309 56.3005-8.1234 84.4093-12.457 22.4369-3.4591 39.551 11.8067 37.2685 34.3245-2.4484 24.1541-5.3494 48.2683-8.4562 72.3466-2.1842 16.9257-1.834 17.7121 14.9934 22.5526 23.6585 6.8055 47.3129 13.6335 70.8782 20.7524 24.8627 7.51 31.9775 27.3592 17.9057 49.2616-14.0052 21.7999-27.8057 43.7371-42.2226 65.2626-4.3807 6.5413-4.5353 10.324 1.8852 15.8269 20.8753 17.8913 41.2867 36.3397 61.5004 54.9827 16.8448 15.5361 14.3882 36.7985-5.1517 48.9093-23.1127 14.3247-46.1128 28.8369-69.4477 42.7899-7.3329 4.3848-8.2094 8.8218-4.9019 16.4004 10.1059 23.1506 19.5901 46.5736 29.1881 69.9433 9.8028 23.8694-0.4536 41.9881-26.3393 45.482-25.9574 3.5031-51.9956 6.4901-78.0646 9.0255-9.0624 0.8817-13.7677 3.6465-14.2469 13.5926-1.1203 23.2878-3.2082 46.5285-4.7954 69.7948-0.5253 7.6964-1.0916 15.3999-4.5742 22.4061-6.1573 12.3843-20.8128 18.6685-36.2752 13.9203-26.5841-8.1644-52.9828-17.0127-79.1214-26.5032-9.215-3.3454-13.4728-1.3804-18.0695 6.996-12.4631 22.7072-25.8499 44.9106-39.0451 67.2102-12.2511 20.7043-34.3368 23.5346-51.5809 6.8608-20.222-19.5533-40.6272-38.9181-60.6546-58.667-4.8312-4.7636-8.2688-2.5969-12.4846 0.2324-22.0447 14.7937-44.1088 29.5588-66.2477 44.2092-24.6845 16.3348-44.5952 9.1484-54.2505-18.9286-8.0046-23.2776-16.9226-46.2408-24.8986-69.5276C324.4646 803.0904 321.0906 799.8167 316.5133 801.367zM744.7245 603.0674c0.6871-25.302-5.4794-46.1629-16.4864-65.8196-29.9244-53.4395-98.3808-62.3575-140.8082-18.2804-38.4399 39.935-40.9846 110.0708-5.6433 155.5702 34.6327 44.587 97.4213 47.0385 134.3662 4.3028C735.3108 656.681 745.8908 630.4645 744.7245 603.0674zM468.2332 397.7124c-0.3236-39.4189-4.7442-55.3841-18.4914-78.3841-30.2756-50.6532-96.7977-58.5216-137.9267-16.3144-40.105 41.1556-42.1079 116.0632-4.2588 159.233 33.92 38.6888 86.7011 43.1985 123.8508 9.9615C457.0061 449.3056 467.628 419.5584 468.2332 397.7124zM365.3222 682.8134c-0.1905 4.3663 2.1914 7.2315 5.6279 9.3737 5.4241 3.3812 10.9916 6.5362 16.3492 10.0168 10.5482 6.8557 15.3057 6.1348 22.1594-4.4954 13.3499-20.7063 26.3485-41.6389 39.6605-62.3688 51.1744-79.6897 102.4512-159.3139 153.6123-239.0129 17.8033-27.733 35.4079-55.593 53.0493-83.4294 6.8905-10.8728 5.6504-15.829-5.4856-22.6273-4.9121-2.9993-9.9502-5.7917-14.8296-8.8412-7.7865-4.8671-13.8947-3.1703-18.6819 4.4288-2.217 3.5195-4.4913 7.0031-6.7369 10.5052-39.8899 62.2193-79.8147 124.417-119.6595 186.666-40.5361 63.3283-80.9912 126.7087-121.4904 190.0605C366.9852 676.0796 365.1195 679.0625 365.3222 682.8134zM697.5119 601.7587c0.64 17.1459-5.4395 31.9816-16.1833 44.9219-15.7164 18.9286-39.3503 20.4093-57.4525 3.9629-26.4305-24.0138-26.1366-77.6837 0.555-101.4835 18.943-16.8909 44.4262-14.0237 59.3029 6.6724C693.5173 569.4413 697.5846 583.0072 697.5119 601.7587zM327.806 383.9754c-0.8407-17.1469 5.1302-32 15.7225-45.0744 15.5617-19.2082 38.8024-21.1098 57.3635-4.9766 27.2937 23.724 26.7766 79.3641-0.9554 102.7123-19.1652 16.1352-43.9828 12.886-58.5073-7.6605C331.7473 415.2781 327.765 402.1309 327.806 383.9754z" p-id="7044"></path></svg>