<?xml version="1.0" standalone="no"?><!DOCTYPE svg PUBLIC "-//W3C//DTD SVG 1.1//EN" "http://www.w3.org/Graphics/SVG/1.1/DTD/svg11.dtd"><svg t="1515653978463" class="icon" style="" viewBox="0 0 1024 1024" version="1.1" xmlns="http://www.w3.org/2000/svg" p-id="1861" xmlns:xlink="http://www.w3.org/1999/xlink" width="200" height="200"><defs><style type="text/css"></style></defs><path d="M684.454 145.076c-187.413 0-339.546-136.89-339.546 46.289 0 34.152 5.363 73.667 14.96 115.44 49.958-2.823 98.222-15.806 141.407-27.378 42.055-11.29 78.183-20.887 111.77-20.887 40.926 0 87.497 14.395 108.102 72.82v-0.564H872.15c1.411 5.645 2.54 9.032 2.54 13.83 0 31.894-34.999 57.861-77.9 57.861-27.943 0-52.499-11.007-66.33-27.378 0.848 9.314 1.412 19.193 1.412 29.919 0 33.023-4.234 70.28-12.419 109.794 43.184 13.548 77.054 48.547 86.086 93.425l-33.588-11.29c-10.443-25.685-32.176-45.442-58.707-54.474-13.548 55.038-34.152 113.182-60.966 168.785 10.443 1.976 21.169 3.387 31.894 3.387 187.413 0 339.546-340.11 339.546-523.008 0.282-183.18-151.568-46.57-339.264-46.57z m-176.97 186.002c-4.516 1.13-9.314 2.54-13.83 3.67-46.29 12.136-98.505 23.99-154.108 23.99C152.132 358.739 0 222.13 0 405.029s152.132 523.007 339.546 523.007 339.546-340.11 339.546-523.007c0-123.343-69.152-101.328-171.608-73.95zM149.592 579.175c-1.411-2.822-2.54-8.467-2.54-13.265 0-31.895 34.999-57.297 77.9-57.297s77.901 25.402 77.901 57.297c0 4.798-1.129 10.443-2.54 13.265h-150.72zM339.546 810.62c-66.893 0-122.496-47.7-134.915-106.973h269.548c-12.137 59.273-67.74 106.973-134.633 106.973zM527.24 579.175h-150.72c-1.412-2.822-2.54-8.467-2.54-13.265 0-31.895 34.998-57.297 77.9-57.297 42.902 0 77.9 25.402 77.9 57.297 0 5.08-0.846 10.443-2.54 13.265z" p-id="1862"></path></svg>